<svg width="51" height="50" viewBox="0 0 51 50" fill="none" xmlns="http://www.w3.org/2000/svg">
<g clip-path="url(#clip0_3718_311)">
<path d="M2.04532 27.5236C0.651602 26.1298 0.651602 23.8702 2.04532 22.4764L23.4765 1.04529C24.8702 -0.348429 27.1299 -0.348429 28.5236 1.04529L49.9547 22.4764C51.3485 23.8702 51.3485 26.1298 49.9547 27.5236L28.5236 48.9547C27.1299 50.3484 24.8702 50.3484 23.4765 48.9547L2.04532 27.5236Z" fill="#EE513B"/>
<path d="M19.1342 5L17 7.17115L22.5122 12.7787C22.2892 13.2653 22.1647 13.8081 22.1647 14.3805C22.1647 16.0054 23.1683 17.3919 24.5793 17.9334V31.6509C23.1683 32.1923 22.1647 33.5788 22.1647 35.2038C22.1647 37.3004 23.8354 39 25.8964 39C27.9573 39 29.6281 37.3004 29.6281 35.2038C29.6281 33.7307 28.8032 32.4533 27.5977 31.8242V17.9521L32.8668 23.3124C32.6547 23.7892 32.5367 24.3185 32.5367 24.8759C32.5367 26.9725 34.2074 28.6721 36.2683 28.6721C38.3293 28.6721 40 26.9725 40 24.8759C40 22.7793 38.3293 21.0797 36.2683 21.0797C35.8678 21.0797 35.4821 21.1438 35.1204 21.2626L29.4614 15.5058C29.5697 15.1503 29.6281 14.7722 29.6281 14.3805C29.6281 12.2839 27.9573 10.5842 25.8964 10.5842C25.5113 10.5842 25.1398 10.6436 24.7902 10.7538L19.1342 5Z" fill="white"/>
</g>
<defs>
<clipPath id="clip0_3718_311">
<rect width="50" height="50" fill="white" transform="translate(0.820343)"/>
</clipPath>
</defs>
</svg>
