<svg width="51" height="50" viewBox="0 0 51 50" fill="none" xmlns="http://www.w3.org/2000/svg">
<g clip-path="url(#clip0_3718_316)">
<path fill-rule="evenodd" clip-rule="evenodd" d="M25.5568 0.520996C11.7521 0.520996 0.55835 11.7575 0.55835 25.6216C0.55835 36.7092 7.72084 46.1167 17.6568 49.436C18.9068 49.6666 19.363 48.8916 19.363 48.2265C19.363 47.6304 19.3411 46.0523 19.3286 43.9581C12.3739 45.4751 10.9068 40.5933 10.9068 40.5933C9.77086 37.6944 8.13179 36.9226 8.13179 36.9226C5.86148 35.3648 8.30365 35.3962 8.30365 35.3962C10.8115 35.5734 12.1318 37.983 12.1318 37.983C14.363 41.8184 17.9834 40.7109 19.4084 40.0678C19.6349 38.4457 20.2818 37.3398 20.9958 36.7124C15.4443 36.0786 9.60834 33.9263 9.60834 24.3087C9.60834 21.5682 10.5818 19.3281 12.1818 17.5727C11.924 16.9374 11.0662 14.3867 12.4256 10.9309C12.4256 10.9309 14.5255 10.2563 19.3005 13.5035C21.2958 12.9466 23.4334 12.6689 25.5599 12.658C27.6834 12.6689 29.8224 12.9466 31.8193 13.5035C36.5912 10.2563 38.6865 10.9309 38.6865 10.9309C40.0506 14.3867 39.1927 16.9374 38.9349 17.5727C40.538 19.3281 41.5052 21.5682 41.5052 24.3087C41.5052 33.9499 35.6599 36.0723 30.0912 36.6935C30.988 37.4684 31.7881 38.9995 31.7881 41.3416C31.7881 44.697 31.7568 47.403 31.7568 48.2265C31.7568 48.8979 32.2068 49.6791 33.4756 49.4329C43.4021 46.1072 50.5583 36.706 50.5583 25.6216C50.5583 11.7575 39.3646 0.520996 25.5568 0.520996Z" fill="#3E75C3"/>
</g>
<defs>
<clipPath id="clip0_3718_316">
<rect width="50" height="50" fill="white" transform="translate(0.55835)"/>
</clipPath>
</defs>
</svg>
