<svg width="50" height="50" viewBox="0 0 50 50" fill="none" xmlns="http://www.w3.org/2000/svg">
<path d="M6.93353 44.9219L2.92963 0H46.9726L42.9687 44.9219L24.9023 50" fill="#E34F26"/>
<path d="M24.9999 46.0938L39.5507 42.0898L42.9687 3.61328H24.9999" fill="#EF652A"/>
<path d="M24.9999 20.3125H17.6757L17.1874 14.6484H24.9999V9.17969H11.1328L12.5976 25.8789H24.9999V20.3125ZM24.9023 34.668L18.7499 33.0078L18.3593 28.6133H12.8906L13.5742 37.3047L24.9023 40.4297V34.668Z" fill="#EBEBEB"/>
<path d="M24.9023 20.3125V25.8789H31.7382L31.0546 33.0078L24.9023 34.668V40.4297L36.2304 37.3047L37.7929 20.3125H24.9023ZM24.9023 9.17969V14.6484H38.2812L38.7695 9.17969H24.9023Z" fill="white"/>
</svg>
