<svg width="81" height="80" viewBox="0 0 81 80" fill="none" xmlns="http://www.w3.org/2000/svg">
<g clip-path="url(#clip0_3718_249)">
<path d="M45.4575 41.5776C46.4207 38.9707 45.022 36.0517 42.333 35.0581C39.6443 34.0647 36.6833 35.3729 35.7201 37.9798C34.7568 40.5871 36.1559 43.506 38.8446 44.4994C41.5336 45.493 44.4942 44.1848 45.4575 41.5776Z" fill="#53C1DE"/>
<path fill-rule="evenodd" clip-rule="evenodd" d="M59.6391 36.8569C62.164 33.1859 66.2318 26.1515 62.6169 21.9214C59.0192 17.7103 51.323 20.3888 47.1294 22.154C45.0894 18.1187 40.8102 11.0391 35.3142 11.9121C29.8414 12.7815 28.5097 20.6853 28.0546 25.1499C23.3959 24.752 15.2209 24.5819 13.3276 29.7061C11.4397 34.8158 17.6724 40.2198 21.4459 42.9362C18.8766 46.6453 14.8583 53.4365 18.459 57.652C22.0843 61.8945 29.8771 59.4062 34.1113 57.6197C36.1633 61.7121 40.2512 68.6252 45.7273 67.7553C51.2205 66.8827 52.7739 59.0337 53.2377 54.5454C57.7431 54.885 65.9857 54.8969 67.85 49.851C69.7251 44.7761 63.372 39.5552 59.6391 36.8569ZM53.406 52.1383C53.4985 49.7653 53.3992 47.1688 53.1195 44.4212C55.0465 42.5513 56.7632 40.6588 58.2115 38.8023C60.9455 40.7872 66.9141 45.2201 65.521 48.9905C64.1148 52.7964 56.9612 52.402 53.406 52.1383ZM45.2823 65.3697C41.1965 66.0185 37.8494 59.6152 36.3317 56.5991C38.4701 55.5375 40.7053 54.2107 42.9809 52.661C45.7006 53.4083 48.3276 53.9576 50.773 54.2858C50.4411 57.4592 49.3861 64.7177 45.2823 65.3697ZM20.3457 56.1254C17.6604 52.9828 21.6082 47.0564 23.4998 44.3238C25.556 45.628 27.9008 46.886 30.4662 48.0699C31.2141 50.6853 32.095 53.1607 33.0749 55.4057C30.4263 56.5238 23.0436 59.2825 20.3457 56.1254ZM15.6566 30.5667C17.068 26.7466 24.4398 27.2588 27.8763 27.5563C27.7637 29.96 27.8274 32.5405 28.0669 35.2146C26.1198 37.1192 24.3676 39.0692 22.8746 40.9918C20.2043 39.0667 14.2443 34.389 15.6566 30.5667ZM35.759 14.2977C39.8619 13.6461 43.4184 20.239 44.9018 23.163C42.7086 24.2269 40.4496 25.5261 38.1981 27.0198C35.5488 26.3028 32.9574 25.7659 30.5176 25.4279C30.8857 21.8274 31.6606 14.9486 35.759 14.2977ZM51.5016 34.7248C53.1626 35.5804 54.7247 36.4794 56.1617 37.404C55.1524 38.6905 54.0027 40.001 52.7347 41.3113C52.4145 39.1027 52.0073 36.9038 51.5016 34.7248ZM45.9383 25.3801C46.5957 26.9054 47.206 28.563 47.7594 30.3211C45.6488 29.4294 43.4986 28.6345 41.3157 27.9387C42.8755 26.9757 44.4255 26.1185 45.9383 25.3801ZM30.3848 33.0516C30.2828 31.2413 30.2691 29.4933 30.3423 27.8372C32.0227 28.0745 33.7836 28.4116 35.5893 28.8408C33.7865 30.1626 32.0494 31.5683 30.3848 33.0516ZM29.6687 45.0176C27.9547 44.1647 26.3673 43.2806 24.9334 42.3778C25.9716 41.0486 27.1436 39.7012 28.425 38.3638C28.7318 40.5974 29.1474 42.8183 29.6687 45.0176ZM35.2969 54.3797C34.6197 52.8169 33.9905 51.1325 33.4228 49.3612C35.5516 50.2411 37.7148 51.0406 39.9082 51.7449C38.3295 52.7516 36.7848 53.6348 35.2969 54.3797ZM50.8251 46.548C50.9588 48.4279 50.9974 50.2129 50.938 51.8748C49.2277 51.6405 47.4169 51.2916 45.5413 50.8363C47.3631 49.4795 49.1296 48.052 50.8251 46.548ZM42.4807 50.0166C39.0935 49.0251 35.7713 47.7948 32.5443 46.3666C31.6494 43.0143 31.0114 39.6007 30.6415 36.165C33.1473 33.7986 35.8374 31.6209 38.6864 29.6567C42.082 30.636 45.4087 31.8643 48.6245 33.3303C49.496 36.669 50.124 40.0644 50.5322 43.4777C48.0111 45.8367 45.3103 48.0168 42.4807 50.0166ZM60.7308 23.4479C63.4275 26.6047 59.4201 32.7969 57.5928 35.4583C55.5179 34.1164 53.2006 32.8322 50.7154 31.648C49.9814 29.026 49.124 26.5718 48.1672 24.3682C51.2409 23.0767 58.06 20.3219 60.7308 23.4479Z" fill="#53C1DE"/>
</g>
<defs>
<clipPath id="clip0_3718_249">
<rect width="62" height="62" fill="white" transform="translate(22.2379) rotate(20.2782)"/>
</clipPath>
</defs>
</svg>
