<svg width="51" height="50" viewBox="0 0 51 50" fill="none" xmlns="http://www.w3.org/2000/svg">
<path d="M34.4448 33.6812C36.1746 33.5051 37.487 32.039 37.4273 30.2795C37.3678 28.5202 35.8764 27.1127 34.0868 27.1127H33.9676C32.1182 27.1713 30.6868 28.6962 30.7465 30.5142C30.8062 31.3938 31.164 32.1562 31.7009 32.684C29.6728 36.6134 26.5709 39.487 21.9182 41.8915C18.7567 43.5335 15.476 44.1201 12.1953 43.7096C9.51102 43.3577 7.42325 42.1849 6.11075 40.2493C4.20205 37.3757 4.02316 34.2674 5.63375 31.1593C6.76717 28.9307 8.55648 27.2885 9.68991 26.4674C9.45133 25.7051 9.09334 24.4149 8.91445 23.4767C0.265103 29.6345 1.15994 37.9623 3.78458 41.8915C5.75295 44.8238 9.74959 46.642 14.1637 46.642C15.3567 46.642 16.5496 46.5245 17.7428 46.2315C25.3781 44.7652 31.1642 40.3081 34.4448 33.6812ZM44.9434 26.409C40.41 21.1895 33.729 18.3159 26.0937 18.3159H25.1395C24.6026 17.2602 23.4692 16.5563 22.2165 16.5563H22.0971C20.2481 16.6151 18.8167 18.1398 18.8762 19.9579C18.9359 21.7173 20.427 23.1248 22.2165 23.1248H22.3357C23.6481 23.0662 24.7815 22.2451 25.2587 21.1307H26.3323C30.8659 21.1307 35.1606 22.4209 39.0381 24.9427C42.0204 26.8781 44.1679 29.3999 45.3609 32.4495C46.375 34.9126 46.3153 37.3171 45.2415 39.3698C43.5714 42.4779 40.7679 44.1787 37.0695 44.1787C34.6834 44.1787 32.4168 43.4749 31.2237 42.9471C30.5676 43.5335 29.3745 44.4718 28.5393 45.0585C31.1045 46.2313 33.729 46.8765 36.2343 46.8765C41.9607 46.8765 46.196 43.7681 47.8067 40.6599C49.5364 37.2584 49.417 31.3938 44.9434 26.409ZM14.6409 34.6779C14.7006 36.4373 16.1918 37.8446 17.9814 37.8446H18.1007C19.9498 37.7862 21.3814 36.2613 21.3217 34.4434C21.2621 32.6838 19.7707 31.2765 17.9814 31.2765H17.8621C17.7428 31.2765 17.5637 31.2765 17.4446 31.3349C14.9989 27.3471 13.9848 23.0074 14.3428 18.3157C14.5812 14.7969 15.7743 11.7472 17.8621 9.2254C19.5918 7.05548 22.9323 5.99987 25.1992 5.94137C31.522 5.824 34.206 13.5652 34.3851 16.6735C35.1606 16.8495 36.4729 17.2601 37.3678 17.5534C36.6518 8.05278 30.6868 3.12646 24.9606 3.12646C19.5918 3.12646 14.6409 6.93848 12.6723 12.5685C9.9285 20.0751 11.718 27.2885 15.0584 32.9773C14.7603 33.3877 14.5812 34.0327 14.6409 34.6779Z" fill="#764ABC"/>
</svg>
