<svg width="51" height="50" viewBox="0 0 51 50" fill="none" xmlns="http://www.w3.org/2000/svg">
<path d="M13.2501 21C14.8834 14.3333 18.9667 11 25.5001 11C35.3001 11 36.5251 18.5 41.4251 19.75C44.6917 20.5833 47.5501 19.3333 50.0001 16C48.3667 22.6667 44.2834 26 37.7501 26C27.9501 26 26.7251 18.5 21.8251 17.25C18.5584 16.4167 15.7001 17.6667 13.2501 21ZM1.00006 36C2.63339 29.3333 6.71673 26 13.2501 26C23.0501 26 24.2751 33.5 29.1751 34.75C32.4417 35.5833 35.3001 34.3333 37.7501 31C36.1167 37.6667 32.0334 41 25.5001 41C15.7001 41 14.4751 33.5 9.57506 32.25C6.30839 31.4167 3.45006 32.6667 1.00006 36Z" fill="#44A8B3"/>
</svg>
