<svg width="51" height="50" viewBox="0 0 51 50" fill="none" xmlns="http://www.w3.org/2000/svg">
<g clip-path="url(#clip0_3718_268)">
<path d="M43.3786 0H8.3786C4.23647 0 0.878601 3.35786 0.878601 7.5V42.5C0.878601 46.6421 4.23647 50 8.3786 50H43.3786C47.5207 50 50.8786 46.6421 50.8786 42.5V7.5C50.8786 3.35786 47.5207 0 43.3786 0Z" fill="#3178C6"/>
<path d="M23.6325 27.7344H29.8825V23.7305H12.402V27.7344H18.652V45.6055H23.6325V27.7344ZM31.8356 44.6289C32.6266 45.0391 33.5934 45.3418 34.6677 45.5469C35.7419 45.752 36.9138 45.8496 38.0856 45.8496C39.2575 45.8496 40.3317 45.7422 41.4059 45.5176C42.4802 45.293 43.3591 44.9219 44.1403 44.4434C44.9313 43.9258 45.6052 43.2715 45.9958 42.3926C46.3864 41.5137 46.6891 40.5371 46.6891 39.2676C46.6891 38.3789 46.5524 37.6074 46.2888 36.9238C46.0251 36.2402 45.6442 35.6543 45.1169 35.166C44.6188 34.6484 44.0427 34.1895 43.3591 33.7988C42.6755 33.4082 41.8942 32.998 41.0153 32.627C40.3708 32.3633 39.8434 32.1094 39.2575 31.8555C38.7497 31.6016 38.3102 31.3477 37.988 31.0937C37.6266 30.8301 37.3532 30.5566 37.1579 30.2734C36.9626 29.9805 36.8649 29.6582 36.8649 29.2969C36.8649 28.9648 36.9518 28.6621 37.1286 28.3887C37.3054 28.1152 37.5485 27.8906 37.861 27.6953C38.1735 27.5 38.5641 27.3535 39.0329 27.2461C39.4919 27.1387 39.9997 27.0898 40.5954 27.0898C41.0056 27.0898 41.4352 27.1201 41.8649 27.1816C42.3141 27.2432 42.7731 27.3379 43.2321 27.4648C43.6911 27.5918 44.1403 27.748 44.5993 27.9434C45.029 28.1387 45.4294 28.3633 45.7712 28.6172V24.0273C45.029 23.7441 44.2087 23.5293 43.3298 23.3926C42.4509 23.2559 41.4743 23.1875 40.3024 23.1875C39.1306 23.1875 38.0563 23.3145 36.9821 23.5586C35.9079 23.8027 35.029 24.1934 34.2477 24.7305C33.4567 25.2578 32.8806 25.9023 32.3923 26.7812C31.9333 27.6016 31.7087 28.5391 31.7087 29.7109C31.7087 31.1758 32.1286 32.4453 32.9782 33.4219C33.8181 34.4961 35.1266 35.2773 36.7868 36.0586C37.4606 36.332 38.0563 36.6055 38.6423 36.8691C39.2282 37.1328 39.7165 37.4062 40.1071 37.6895C40.527 37.9727 40.8591 38.2852 41.0837 38.6172C41.3278 38.9492 41.4548 39.3398 41.4548 39.7891C41.4548 40.1016 41.3786 40.3945 41.2302 40.668C41.0817 40.9414 40.8493 41.1758 40.5368 41.3711C40.2243 41.5664 39.8434 41.7227 39.3649 41.8398C38.9059 41.9473 38.3884 42.0059 37.7048 42.0059C36.6306 42.0059 35.5563 41.8203 34.5798 41.4492C33.5056 41.0781 32.529 40.5215 31.8356 39.9414V44.6289Z" fill="white"/>
</g>
<defs>
<clipPath id="clip0_3718_268">
<rect width="50" height="50" fill="white" transform="translate(0.878601)"/>
</clipPath>
</defs>
</svg>
